<svg width="1686" height="176" viewBox="0 0 1686 176" fill="none" xmlns="http://www.w3.org/2000/svg">
<path d="M-6.41289e-05 11.2884L11.9795 -1.33655e-05H53.6776L65.1964 11.0581V43.7715H42.8499V21.8857H21.8857V76.4849H54.1384L65.1964 87.543V163.106L54.1384 175.086H11.058L-6.41289e-05 162.646V131.314H21.8857V153.2H42.8499V98.1403H10.8276L-6.41289e-05 87.0822V11.2884ZM89.2797 175.086V-1.33655e-05H111.165V76.4849H135.816V-1.33655e-05H157.701V175.086H135.816V98.601H111.165V175.086H89.2797ZM199.275 175.086H177.39L201.118 -1.33655e-05H221.852L245.811 175.086H223.926L221.161 155.274H202.04L199.275 175.086ZM211.485 85.0088L205.035 133.388H218.166L211.485 85.0088ZM286.853 -1.33655e-05L311.733 93.3024V0.460747H333.619V175.086H311.733L287.313 83.6266V175.086H265.428V-1.33655e-05H286.853ZM361.376 175.086V-1.33655e-05H426.111V21.8857H383.261V76.4849H409.985V98.601H383.261V153.2H426.111V175.086H361.376ZM527.912 59.8978L552.563 -1.33655e-05H574.448L538.51 87.543L574.448 175.086H552.563L527.912 115.188V175.086H506.027V-1.33655e-05H527.912V59.8978ZM594.101 175.086V-1.33655e-05H658.836V21.8857H615.986V76.4849H642.71V98.601H615.986V153.2H658.836V175.086H594.101ZM704.499 -1.33655e-05L729.38 93.3024V0.460747H751.266V175.086H729.38L704.96 83.6266V175.086H683.074V-1.33655e-05H704.499ZM800.448 -1.33655e-05L825.328 93.3024V0.460747H847.214V175.086H825.328L800.908 83.6266V175.086H779.023V-1.33655e-05H800.448ZM874.971 175.086V-1.33655e-05H939.706V21.8857H896.856V76.4849H923.58V98.601H896.856V153.2H939.706V175.086H874.971ZM963.944 175.086V-1.33655e-05H1017.16L1028.45 11.0581V163.798L1018.08 175.086H963.944ZM1006.79 153.2V21.8857H985.83V153.2H1006.79ZM1092.32 -1.33655e-05H1114.2L1090.24 87.0822V175.086H1068.36V87.0822L1044.63 -1.33655e-05H1066.52L1079.42 47.2271L1092.32 -1.33655e-05ZM1186.01 11.2884L1197.99 -1.33655e-05H1239.69L1251.21 11.0581V43.7715H1228.86V21.8857H1207.9V76.4849H1240.15L1251.21 87.543V163.106L1240.15 175.086H1197.07L1186.01 162.646V131.314H1207.9V153.2H1228.86V98.1403H1196.84L1186.01 87.0822V11.2884ZM1271.84 11.0581L1283.13 -1.33655e-05H1325.98L1336.57 11.0581V162.185L1325.98 175.086H1283.13L1271.84 162.415V11.0581ZM1314.69 153.2V21.8857H1293.72V153.2H1314.69ZM1353.76 11.0581L1365.05 -1.33655e-05H1407.9L1418.49 11.0581V43.0804H1396.61V21.8857H1375.64V153.2H1396.61V132.006H1418.49V162.185L1407.9 175.086H1365.05L1353.76 162.415V11.0581ZM1439.13 11.0581L1450.42 -1.33655e-05H1493.27L1503.87 11.0581V43.0804H1481.98V21.8857H1461.02V153.2H1481.98V132.006H1503.87V162.185L1493.27 175.086H1450.42L1439.13 162.415V11.0581ZM1531.42 175.086V-1.33655e-05H1596.15V21.8857H1553.3V76.4849H1580.03V98.601H1553.3V153.2H1596.15V175.086H1531.42ZM1620.39 175.086V-1.33655e-05H1671.76L1685.13 11.9796V86.1607L1674.3 97.9099H1673.15L1685.13 175.086H1663.24L1651.26 97.9099H1642.28V175.086H1620.39ZM1663.24 76.4849V21.8857H1642.28V76.4849H1663.24Z" fill="white"/>
</svg>
