<svg width="2168" height="2045" viewBox="0 0 2168 2045" fill="none" xmlns="http://www.w3.org/2000/svg">
<g clip-path="url(#clip0_8021_3592)">
<path d="M1488.77 1258.49L2136.7 790.98H1337.11L1085.64 31.5801L830.11 790.97H30.86L679.99 1261.03L431.76 2016.24L1088.34 1555L1727.42 2018.22L1488.78 1258.48L1488.77 1258.49Z" fill="#003970" stroke="#FEBE10" stroke-width="20" stroke-miterlimit="10"/>
<path d="M905.93 757.169H978.14L1077.58 462.399L1285.94 1059.04H1392.48L1489.55 988.009H1338.02L1085.18 224.449L905.93 757.169Z" fill="#FEBE10"/>
<path d="M1374.72 852.039L1412.61 913.429H1731.05L1208.99 1300.54L1250.42 1417.74L1332.11 1459.18L1296.59 1321.85L1947.69 852.039H1374.72Z" fill="#FEBE10"/>
<path d="M1078.77 687.32L1120.2 797.42L1078.77 913.43H451.34L708.23 1113.5L683.37 1188.08L219.31 852.04H1029.05L1078.77 687.32Z" fill="#FEBE10"/>
<path d="M669.76 1002.22H793.47L879.88 1068.51L685.74 1671.08L958.02 1484.04L1020.76 1527.84L547.23 1860.49L799.38 1093.37L669.76 1002.22Z" fill="#FEBE10"/>
<path d="M843.19 1472.2L955.65 1383.41L1613.86 1860.49L1439.83 1306.46L1384.19 1373.94L1489.55 1681.74L956.83 1299.36L843.19 1472.2Z" fill="#FEBE10"/>
</g>
<defs>
<clipPath id="clip0_8021_3592">
<rect width="2167.65" height="2044.05" fill="white"/>
</clipPath>
</defs>
</svg>
