<svg width="885" height="348" viewBox="0 0 885 348" fill="none" xmlns="http://www.w3.org/2000/svg">
<path d="M0 9.42749L10.0121 0H44.8618L54.4888 9.23509V36.5556H35.8124V18.2778H18.2913V63.876H45.2468L54.4888 73.1111V136.218L45.2468 146.222H9.24191L0 135.833V109.667H18.2913V127.944H35.8124V81.9614H9.04937L0 72.7263V9.42749Z" fill="white"/>
<path d="M70.7659 146.222V0H89.0572V63.876H109.659V0H127.95V146.222H109.659V82.3462H89.0572V146.222H70.7659Z" fill="white"/>
<path d="M158.845 146.222H140.554L160.386 0H177.714L197.738 146.222H179.447L177.137 129.676H161.156L158.845 146.222ZM169.05 70.9947L163.659 111.398H174.634L169.05 70.9947Z" fill="white"/>
<path d="M228.188 0L248.982 77.9211V0.384802H267.274V146.222H248.982L228.573 69.8403V146.222H210.282V0H228.188Z" fill="white"/>
<path d="M286.621 146.222V0H340.725V18.2778H304.912V63.876H327.247V82.3462H304.912V127.944H340.725V146.222H286.621Z" fill="white"/>
<path d="M418.105 50.0234L438.706 0H456.998L426.961 73.1111L456.998 146.222H438.706L418.105 96.1988V146.222H399.813V0H418.105V50.0234Z" fill="white"/>
<path d="M469.571 146.222V0H523.675V18.2778H487.863V63.876H510.197V82.3462H487.863V127.944H523.675V146.222H469.571Z" fill="white"/>
<path d="M557.988 0L578.782 77.9211V0.384802H597.073V146.222H578.782L558.373 69.8403V146.222H540.082V0H557.988Z" fill="white"/>
<path d="M634.327 0L655.121 77.9211V0.384802H673.412V146.222H655.121L634.712 69.8403V146.222H616.421V0H634.327Z" fill="white"/>
<path d="M692.76 146.222V0H746.863V18.2778H711.051V63.876H733.385V82.3462H711.051V127.944H746.863V146.222H692.76Z" fill="white"/>
<path d="M763.27 146.222V0H807.746L817.181 9.23509V136.795L808.517 146.222H763.27ZM799.082 127.944V18.2778H781.561V127.944H799.082Z" fill="white"/>
<path d="M866.709 0H885L864.976 72.7263V146.222H846.685V72.7263L826.853 0H845.144L855.927 39.4415L866.709 0Z" fill="white"/>
<path d="M140.554 210.427L150.566 201H185.416L195.043 210.235V237.556H176.366V219.278H158.845V264.876H185.801L195.043 274.111V337.218L185.801 347.222H149.796L140.554 336.833V310.667H158.845V328.944H176.366V282.961H149.603L140.554 273.726V210.427Z" fill="white"/>
<path d="M251.303 210.235L260.738 201H296.55L305.407 210.235V336.448L296.55 347.222H260.738L251.303 336.64V210.235ZM287.116 328.944V219.278H269.594V328.944H287.116Z" fill="white"/>
<path d="M361.667 210.235L371.102 201H406.914L415.771 210.235V236.978H397.48V219.278H379.959V328.944H397.48V311.244H415.771V336.448L406.914 347.222H371.102L361.667 336.64V210.235Z" fill="white"/>
<path d="M472.031 210.235L481.466 201H517.278L526.135 210.235V236.978H507.844V219.278H490.323V328.944H507.844V311.244H526.135V336.448L517.278 347.222H481.466L472.031 336.64V210.235Z" fill="white"/>
<path d="M582.396 347.222V201H636.499V219.278H600.687V264.876H623.021V283.346H600.687V328.944H636.499V347.222H582.396Z" fill="white"/>
<path d="M692.76 347.222V201H735.696L746.863 211.005V272.957L737.814 282.769H736.851L746.863 347.222H728.572L718.56 282.769H711.051V347.222H692.76ZM728.572 264.876V219.278H711.051V264.876H728.572Z" fill="white"/>
</svg>
